<?xml version="1.0" encoding="utf-8"?>
<?xml-stylesheet type="text/xsl" href="rss1.xsl"?>
<rss version="2.0" xmlns:atom="http://www.w3.org/2005/Atom" xmlns:content="http://purl.org/rss/1.0/modules/content/" xmlns:dc="http://purl.org/dc/elements/1.1/" xmlns:media="http://search.yahoo.com/mrss/">
<channel>
 <title>Getty</title>
 <link>http://www.gettyimg.com/</link>
 <atom:link href="http://www.gettyimg.com/" rel="self" type="application/rss+xml" />

 
                <item>
                <title><![CDATA[【Requests】[REQ AUD] - FLAC OF THIS QOBUZ ALBUM [IT'S OF SOME OLD BOLLYWOOD MOVIE]]]></title>
                <link><![CDATA[https://sharemania.us/threads/flac-of-this-qobuz-album-its-of-some-old-bollywood-movie.243333/]]></link>
                <description><![CDATA[<article>
<blockquote class="messageText SelectQuoteContainer ugc baseHtml">
<a href="https://www.qobuz.com/us-en/album/mukti-original-motion-picture-soundtrack-r-d-burman/hmbg66xc9zt7b" target="_blank" class="externalLink" rel="nofollow">https://www.qobuz.com/us-en/album/mukti-original-motion-picture-soundtrack-r-d-burman/hmbg66xc9zt7b</a>
<div class="messageTextEndMarker">&nbsp;</div>
</blockquote>
</article>]]></description>
                <author><![CDATA[Samhorny666]]></author>
                </item>

                
                <item>
                <title><![CDATA[【Apple Music】WEB-RiP - Sigala - Melody (1080p)]]></title>
                <link><![CDATA[https://sharemania.us/threads/sigala-melody-1080p.243336/]]></link>
                <description><![CDATA[<article>
<blockquote class="messageText SelectQuoteContainer ugc baseHtml">
<img src="https://i.postimg.cc/qMDRN62Q/Sigala-Melody-mp4.jpg" class="bbCodeImage LbImage" alt="[​IMG]" data-url="https://i.postimg.cc/qMDRN62Q/Sigala-Melody-mp4.jpg" style=""><br>
<br>
<div class="bbCodeBlock bbCodeCode">
<div class="type">Code:</div>
<pre>General
Complete name                  : G:\Новая папка\Sigala - Melody.mp4
Format                         : MPEG-4
Format profile                 : Base Media
Codec ID                       : isom (isom/iso2/avc1/mp41)
File size                      : 220 MiB
Duration                       : 3 min 0 s
Overall bit rate               : 10.2 Mb/s
Frame rate                     : 25.000 FPS
Movie name                     : Melody
Performer                      : Sigala
Genre                          : Dance
ContentType                    : Music Video
Recorded date                  : 2022-02-04 08:00:00 UTC
Writing application            : Lavf56.30.100
Copyright                      : ℗ (C) 2022 Ministry of Sound Recordings Limited/B1 Recordings GmbH. a Sony Music Entertainment Company

Video
ID                             : 1
Format                         : AVC
Format/Info                    : Advanced Video Codec
Format profile                 : High@L4
Format settings                : CABAC / 4 Ref Frames
Format settings, CABAC         : Yes
Format settings, Reference fra : 4 frames
Format settings, Slice count   : 8 slices per frame
Codec ID                       : avc1
Codec ID/Info                  : Advanced Video Coding
Duration                       : 3 min 0 s
Bit rate                       : 9 969 kb/s
Width                          : 1 680 pixels
Height                         : 1 080 pixels
Display aspect ratio           : 16:10
Frame rate mode                : Constant
Frame rate                     : 25.000 FPS
Color space                    : YUV
Chroma subsampling             : 4:2:0
Bit depth                      : 8 bits
Scan type                      : Progressive
Bits/(Pixel*Frame)             : 0.220
Stream size                    : 215 MiB (98%)
Color range                    : Limited
Color primaries                : BT.709
Transfer characteristics       : BT.709
Matrix coefficients            : BT.709
Codec configuration box        : avcC

Audio
ID                             : 2
Format                         : AAC LC
Format/Info                    : Advanced Audio Codec Low Complexity
Codec ID                       : mp4a-40-2
Duration                       : 3 min 0 s
Duration_LastFrame             : -7 ms
Bit rate mode                  : Constant
Bit rate                       : 248 kb/s
Channel(s)                     : 2 channels
Channel layout                 : L R
Sampling rate                  : 48.0 kHz
Frame rate                     : 46.875 FPS (1024 SPF)
Compression mode               : Lossy
Stream size                    : 5.34 MiB (2%)
Default                        : Yes
Alternate group                : 1

</pre>
</div>
<div class="bbCodeBlock bbCodeVfcHH HiddenContent">
<div class="attribution type">Hidden Content:</div>
<blockquote>You must either reply or click 'Like' to see the hidden information contained here.</blockquote>
</div>
<div class="messageTextEndMarker">&nbsp;</div>
</blockquote>
</article>]]></description>
                <author><![CDATA[vitalya3]]></author>
                </item>

                
                <item>
                <title><![CDATA[【MASTER &amp; MASTER RIP】MASTER - Nicki Nicole - Ojos Verdes (Master 4K)]]></title>
                <link><![CDATA[https://sharemania.us/threads/nicki-nicole-ojos-verdes-master-4k.243334/]]></link>
                <description><![CDATA[<article>
<blockquote class="messageText SelectQuoteContainer ugc baseHtml">
<div style="text-align: center"><img src="https://i.ibb.co/7G6rYJC/Nicki-Nicole-Ojos-Verdes-VTM.gif" class="bbCodeImage LbImage" alt="[​IMG]" data-url="https://i.ibb.co/7G6rYJC/Nicki-Nicole-Ojos-Verdes-VTM.gif" style=""><br>
​</div>
<div class="ToggleTriggerAnchor bbCodeSpoilerContainer">
<button type="button" class="button bbCodeSpoilerButton ToggleTrigger Tooltip JsOnly" data-target="> .SpoilerTarget"><span>Spoiler: <span class="SpoilerTitle">MASTER</span></span></button>
<div class="SpoilerTarget bbCodeSpoilerText">
<div class="bbCodeBlock bbCodeCode">
<div class="type">Code:</div>
<pre>General
Complete name                            : Nicki Nicole - Ojos Verdes.mp4
Format                                   : MPEG-4
Format profile                           : Base Media / Version 2
Codec ID                                 : mp42 (mp42/mp41)
File size                                : 2.19 GiB
Duration                                 : 2 min 29 s
Overall bit rate mode                    : Variable
Overall bit rate                         : 126 Mb/s
Frame rate                               : 24.000 FPS
Encoded date                             : 2024-04-27 21:22:18 UTC
Tagged date                              : 2024-04-27 21:23:14 UTC
TIM                                      : 00:00:00:00
TSC                                      : 24
TSZ                                      : 1

Video
ID                                       : 1
Format                                   : AVC
Format/Info                              : Advanced Video Codec
Format profile                           : Main@L5.1
Format settings                          : CABAC / 3 Ref Frames
Format settings, CABAC                   : Yes
Format settings, Reference frames        : 3 frames
Format settings, GOP                     : M=1, N=30
Codec ID                                 : avc1
Codec ID/Info                            : Advanced Video Coding
Duration                                 : 2 min 29 s
Bit rate                                 : 125 Mb/s
Width                                    : 3 840 pixels
Height                                   : 2 160 pixels
Display aspect ratio                     : 16:9
Frame rate mode                          : Constant
Frame rate                               : 24.000 FPS
Color space                              : YUV
Chroma subsampling                       : 4:2:0
Bit depth                                : 8 bits
Scan type                                : Progressive
Bits/(Pixel*Frame)                       : 0.630
Stream size                              : 2.18 GiB (100%)
Language                                 : English
Encoded date                             : 2024-04-27 21:22:18 UTC
Tagged date                              : 2024-04-27 21:22:18 UTC
Codec configuration box                  : avcC

Audio
ID                                       : 2
Format                                   : AAC LC
Format/Info                              : Advanced Audio Codec Low Complexity
Codec ID                                 : 2 / 40 / mp4a-40-2
Duration                                 : 2 min 29 s
Source duration                          : 2 min 29 s
Bit rate mode                            : Variable
Bit rate                                 : 317 kb/s
Maximum bit rate                         : 378 kb/s
Channel(s)                               : 2 channels
Channel layout                           : L R
Sampling rate                            : 48.0 kHz
Frame rate                               : 46.875 FPS (1024 SPF)
Compression mode                         : Lossy
Stream size                              : 5.65 MiB (0%)
Source stream size                       : 5.65 MiB (0%)
Language                                 : English
Encoded date                             : 2024-04-27 21:22:18 UTC
Tagged date                              : 2024-04-27 21:22:18 UTC

</pre>
</div><div style="text-align: center">​</div></div>
</div><div style="text-align: center"><br>
<div class="bbCodeBlock bbCodeVfcHH HiddenContent">
<div class="attribution type">Hidden Content:</div>
<blockquote>You must reply before you can see the hidden data contained here.</blockquote>
</div></div>
<div class="messageTextEndMarker">&nbsp;</div>
</blockquote>
</article>]]></description>
                <author><![CDATA[fstambuk]]></author>
                </item>

                
                <item>
                <title><![CDATA[【Albums (lossless)】FLAC - FULL OF HELL - 2024 - Coagulated Bliss [24Bit-48kHz]]]></title>
                <link><![CDATA[https://sharemania.us/threads/full-of-hell-2024-coagulated-bliss-24bit-48khz.243335/]]></link>
                <description><![CDATA[<article>
<blockquote class="messageText SelectQuoteContainer ugc baseHtml">
<div style="text-align: center"><img src="https://static.qobuz.com/images/covers/8a/94/q1lmznmit948a_600.jpg" class="bbCodeImage LbImage" alt="[​IMG]" data-url="https://static.qobuz.com/images/covers/8a/94/q1lmznmit948a_600.jpg" style=""> <br>
<br>
<b>Band</b>: Full Of Hell<br>
<b>Album</b>: Coagulated Bliss<br>
<b>Date</b>: 26 April 2024<br>
<b>Genre</b>: Noise/Grindcore/Death Metal<br>
<b>Quality</b>: 24bit-48kHz<br>
<b>Country</b>: USA<br>
<b>Size</b>: 328,0MB<br>
<br>
<b>Tracklist</b>:<br>
<br>
1-Half Life of Changelings 01:11<br>
2-Doors to Mental Agony 01:36<br>
3-Transmuting Chemical Burns 01:37<br>
4-Fractured Bonds to Mecca 02:14<br>
5-Coagulated Bliss 01:21<br>
6-Bleeding Horizon 06:13<br>
7-Vomiting Glass 00:56<br>
8-Schizoid Rupture 01:51<br>
9-Vacuous Dose 01:40<br>
10-Gasping Dust 01:09<br>
11-Gelding of Men 01:53<br>
12-Malformed Ligature 03:34<br>
<br>
<b><span style="text-decoration: underline"><span style="font-size: 18px"><span style="color: #b30000">Filedot</span></span></span></b>:<br>
<br>
<div class="bbCodeBlock bbCodeVfcHH HiddenContent">
<div class="attribution type">Hidden Content:</div>
<blockquote>You must either reply or click 'Like' to see the hidden information contained here.</blockquote>
</div></div>
<div class="messageTextEndMarker">&nbsp;</div>
</blockquote>
</article>]]></description>
                <author><![CDATA[XRB80]]></author>
                </item>

                </channel></rss>